<?xml version="1.0" encoding="UTF-8" standalone="no"?><!DOCTYPE svg PUBLIC "-//W3C//DTD SVG 1.1//EN" "http://www.w3.org/Graphics/SVG/1.1/DTD/svg11.dtd"><svg width="100%" height="100%" viewBox="0 0 280 280" version="1.1" xmlns="http://www.w3.org/2000/svg" xmlns:xlink="http://www.w3.org/1999/xlink" xml:space="preserve" xmlns:serif="http://www.serif.com/" fill-rule="evenodd"><rect id="book-it" x="0" y="0" width="280" height="280" fill="none"/><path d="M140,0c77.268,0 140,62.732 140,140c0,77.268 -62.732,140 -140,140c-77.268,0 -140,-62.732 -140,-140c0,-77.268 62.732,-140 140,-140Zm0,26c62.918,0 114,51.082 114,114c0,62.918 -51.082,114 -114,114c-62.918,0 -114,-51.082 -114,-114c0,-62.918 51.082,-114 114,-114Z"/><g><path d="M140,55.951l0,84.049" fill="none" stroke="currentColor" stroke-width="26px"/><path d="M78.975,140l74.05,0" fill="none" stroke="currentColor" stroke-width="26px"/></g></svg>