<?xml version="1.0" encoding="UTF-8" standalone="no"?><!DOCTYPE svg PUBLIC "-//W3C//DTD SVG 1.1//EN" "http://www.w3.org/Graphics/SVG/1.1/DTD/svg11.dtd"><svg width="100%" height="100%" viewBox="0 0 280 280" version="1.1" xmlns="http://www.w3.org/2000/svg" xmlns:xlink="http://www.w3.org/1999/xlink" xml:space="preserve" xmlns:serif="http://www.serif.com/" style="fill-rule:evenodd;clip-rule:evenodd;stroke-linejoin:round;stroke-miterlimit:2;"><rect id="briefcase" x="0" y="0" width="280" height="280" style="fill:none;"/><path d="M104,140.358l-104,0l0,108.069c0,5.481 4.45,9.931 9.932,9.931l260.136,0c5.482,0 9.932,-4.45 9.932,-9.931l-0,-108.069l-104,0l-0,21.926c-0,2.303 -1.87,4.173 -4.173,4.173l-63.654,-0c-2.303,-0 -4.173,-1.87 -4.173,-4.173l-0,-21.926Zm60,0l-48,0l-0,12.324c-0,0.98 0.795,1.775 1.774,1.775l44.452,-0c0.979,-0 1.774,-0.795 1.774,-1.775l0,-12.324Zm-84.5,-76.433l-69.568,-0c-5.482,-0 -9.932,4.45 -9.932,9.931l-0,54.502l280,0l-0,-54.502c-0,-5.481 -4.45,-9.931 -9.932,-9.931l-69.568,-0l-0,-38.64c-0,-2.011 -1.633,-3.643 -3.643,-3.643l-113.714,-0c-2.01,-0 -3.643,1.632 -3.643,3.643l-0,38.64Zm97,-0l-0,-18.866c-0,-0.939 -0.762,-1.701 -1.7,-1.701l-69.6,0c-0.938,0 -1.7,0.762 -1.7,1.701l-0,18.866l73,-0Z"/></svg>