<?xml version="1.0" encoding="UTF-8" standalone="no"?><!DOCTYPE svg PUBLIC "-//W3C//DTD SVG 1.1//EN" "http://www.w3.org/Graphics/SVG/1.1/DTD/svg11.dtd"><svg width="100%" height="100%" viewBox="0 0 280 280" version="1.1" xmlns="http://www.w3.org/2000/svg" xmlns:xlink="http://www.w3.org/1999/xlink" xml:space="preserve" xmlns:serif="http://www.serif.com/" style="fill-rule:evenodd;clip-rule:evenodd;stroke-linejoin:round;stroke-miterlimit:2;"><rect id="chat" x="0" y="0" width="280" height="280" style="fill:none;"/><clipPath id="_clip1"><rect x="0" y="0" width="280" height="280"/></clipPath><g clip-path="url(#_clip1)"><path d="M280,0l-280,0l0,223.836l61.463,0l-0.121,56.164l111.669,-56.164l106.989,0l0,-223.836Zm-24.429,24.429l-0,174.978c-0,-0 -88.357,-0 -88.357,-0l-81.357,40.918c-0,0 0.088,-40.918 0.088,-40.918l-61.516,-0c0,-0 0,-174.978 0,-174.978c0,0 231.142,0 231.142,0l-0,0Z"/><g><rect x="62" y="96" width="36" height="36"/><rect x="122" y="96" width="36" height="36"/><rect x="182" y="96" width="36" height="36"/></g></g></svg>