<?xml version="1.0" encoding="UTF-8" standalone="no"?><!DOCTYPE svg PUBLIC "-//W3C//DTD SVG 1.1//EN" "http://www.w3.org/Graphics/SVG/1.1/DTD/svg11.dtd"><svg width="100%" height="100%" viewBox="0 0 280 280" version="1.1" xmlns="http://www.w3.org/2000/svg" xmlns:xlink="http://www.w3.org/1999/xlink" xml:space="preserve" xmlns:serif="http://www.serif.com/" fill-rule="evenodd"><rect x="0" y="0" width="280" height="280" fill="none"/><g><circle cx="140" cy="140" r="74.5" fill="none"/><path d="M140,65.5c41.118,0 74.5,33.382 74.5,74.5c0,41.118 -33.382,74.5 -74.5,74.5c-41.118,0 -74.5,-33.382 -74.5,-74.5c0,-41.118 33.382,-74.5 74.5,-74.5Zm0,22c28.976,0 52.5,23.524 52.5,52.5c0,28.976 -23.524,52.5 -52.5,52.5c-28.976,0 -52.5,-23.524 -52.5,-52.5c0,-28.976 23.524,-52.5 52.5,-52.5Z"/><g><path d="M140,10l0,30" fill="none" stroke="#000" stroke-width="20px"/><path d="M232,47.393l-21.213,21.214" fill="none" stroke="#000" stroke-width="20px"/><path d="M269.941,138.61l-30,0" fill="none" stroke="#000" stroke-width="20px"/><path d="M232.548,231.158l-21.213,-21.213" fill="none" stroke="#000" stroke-width="20px"/><path d="M140,270l-0,-30" fill="none" stroke="#000" stroke-width="20px"/><path d="M48,232l21.213,-21.213" fill="none" stroke="#000" stroke-width="20px"/><path d="M10,138.6l30,-0" fill="none" stroke="#000" stroke-width="20px"/><path d="M48,48l21.213,21.213" fill="none" stroke="#000" stroke-width="20px"/></g></g></svg>