<?xml version="1.0" encoding="UTF-8" standalone="no"?><!DOCTYPE svg PUBLIC "-//W3C//DTD SVG 1.1//EN" "http://www.w3.org/Graphics/SVG/1.1/DTD/svg11.dtd"><svg width="100%" height="100%" viewBox="0 0 280 280" version="1.1" xmlns="http://www.w3.org/2000/svg" xmlns:xlink="http://www.w3.org/1999/xlink" xml:space="preserve" xmlns:serif="http://www.serif.com/" style="fill-rule:evenodd;clip-rule:evenodd;stroke-linejoin:round;stroke-miterlimit:2;"><rect id="date" x="0" y="0" width="280" height="280" style="fill:none;"/><clipPath id="_clip1"><rect x="0" y="0" width="280" height="280"/></clipPath><g clip-path="url(#_clip1)"><path d="M112.788,204.54l-0,-93.345l-11.078,0c-7.934,4.229 -15.601,8.94 -22.96,14.105l0,12.163c6.563,-4.498 16.958,-10.85 22.015,-13.598l0.21,0l0,80.675l11.813,0Zm20.789,-22.837c0.823,11.2 10.395,24.605 29.803,24.605c22.015,-0 35,-18.655 35,-50.243c0,-33.845 -13.667,-46.69 -34.177,-46.69c-16.206,0 -31.448,11.76 -31.448,31.658c0,20.299 14.42,30.975 29.33,30.975c13.055,-0 21.525,-6.581 24.202,-13.825l0.473,-0c-0.07,23.03 -8.068,37.869 -22.838,37.869c-11.62,0 -17.64,-7.874 -18.375,-14.35l-11.97,0Zm51.678,-40.547c-0,12.18 -9.782,20.65 -20.72,20.65c-10.517,-0 -20.02,-6.703 -20.02,-21c0,-14.403 10.185,-21.175 20.44,-21.175c11.078,-0 20.3,6.965 20.3,21.525Z" style="fill-rule:nonzero;"/><path d="M61.25,0c4.8,-0 8.75,3.95 8.75,8.75l0,8.75l140,0l0,-8.75c0,-4.8 3.95,-8.75 8.75,-8.75c4.8,-0 8.75,3.95 8.75,8.75l0,8.75l17.5,0c19.2,-0 35,15.8 35,35l0,192.5c0,19.2 -15.8,35 -35,35l-210,0c-19.2,0 -35,-15.8 -35,-35l0,-192.5c-0,-19.2 15.8,-35 35,-35l17.5,0l0,-8.75c0,-4.8 3.95,-8.75 8.75,-8.75Zm-43.75,70l0,175c0,9.6 7.9,17.5 17.5,17.5l210,0c9.6,0 17.5,-7.9 17.5,-17.5l0,-175l-245,0Z" style="fill-rule:nonzero;"/></g></svg>