<?xml version="1.0" encoding="UTF-8" standalone="no"?><!DOCTYPE svg PUBLIC "-//W3C//DTD SVG 1.1//EN" "http://www.w3.org/Graphics/SVG/1.1/DTD/svg11.dtd"><svg width="100%" height="100%" viewBox="0 0 280 280" version="1.1" xmlns="http://www.w3.org/2000/svg" xmlns:xlink="http://www.w3.org/1999/xlink" xml:space="preserve" xmlns:serif="http://www.serif.com/" style="fill-rule:evenodd;clip-rule:evenodd;stroke-linejoin:round;stroke-miterlimit:2;"><rect id="dollar" x="0" y="0" width="280" height="280" style="fill:none;"/><g id="dollar1" serif:id="dollar"><path d="M121.817,280l0,-32.576c-22.995,-1.033 -45.29,-7.21 -58.345,-14.753l10.308,-40.154c14.42,7.884 34.65,15.085 56.971,15.085c19.556,0 32.944,-7.542 32.944,-21.262c-0,-13.046 -10.981,-21.289 -36.383,-29.873c-36.715,-12.346 -61.775,-29.505 -61.775,-62.781c0,-30.205 21.289,-53.874 58.004,-61.084l0,-32.602l33.618,0l-0,30.205c22.995,1.032 38.447,5.81 49.761,11.314l-9.949,38.78c-8.916,-3.772 -24.701,-11.682 -49.429,-11.682c-22.295,0 -29.505,9.608 -29.505,19.224c0,11.314 12.014,18.524 41.187,29.505c40.818,14.42 57.303,33.276 57.303,64.181c0,30.538 -21.63,56.613 -61.083,63.482l-0,34.991l-33.627,-0Z" style="fill-rule:nonzero;"/></g></svg>