<?xml version="1.0" encoding="UTF-8" standalone="no"?><!DOCTYPE svg PUBLIC "-//W3C//DTD SVG 1.1//EN" "http://www.w3.org/Graphics/SVG/1.1/DTD/svg11.dtd"><svg width="100%" height="100%" viewBox="0 0 280 280" version="1.1" xmlns="http://www.w3.org/2000/svg" xmlns:xlink="http://www.w3.org/1999/xlink" xml:space="preserve" xmlns:serif="http://www.serif.com/"><rect x="0" y="0" width="280" height="280" fill="none"/><path d="M280,140c0,-77.32 -62.68,-140 -140,-140c-77.32,0 -140,62.68 -140,140c0,69.878 51.196,127.796 118.125,138.299l0,-97.83l-35.547,-0l0,-40.469l35.547,0l0,-30.844c0,-35.087 20.901,-54.469 52.88,-54.469c15.317,0 31.339,2.735 31.339,2.735l-0,34.453l-17.654,0c-17.391,0 -22.815,10.792 -22.815,21.863l0,26.262l38.828,0l-6.207,40.469l-32.621,-0l0,97.83c66.929,-10.503 118.125,-68.421 118.125,-138.299Z"/></svg>