<?xml version="1.0" encoding="UTF-8" standalone="no"?><!DOCTYPE svg PUBLIC "-//W3C//DTD SVG 1.1//EN" "http://www.w3.org/Graphics/SVG/1.1/DTD/svg11.dtd"><svg width="100%" height="100%" viewBox="0 0 280 280" version="1.1" xmlns="http://www.w3.org/2000/svg" xmlns:xlink="http://www.w3.org/1999/xlink" xml:space="preserve" xmlns:serif="http://www.serif.com/" style="fill-rule:evenodd;clip-rule:evenodd;stroke-linejoin:round;stroke-miterlimit:2;"><rect id="family" x="0" y="0" width="280" height="280" style="fill:none;"/><g><circle cx="74" cy="82" r="40"/><path d="M75.793,237.666l-75.793,0l0,-38.257c0,-39.453 32.031,-71.484 71.484,-71.484l5.032,0c7.804,0 15.317,1.254 22.345,3.568c1.289,6.269 3.978,12.031 7.725,16.943c-18.414,10.764 -30.793,30.741 -30.793,53.588l0,35.642Z"/></g><g><circle cx="206" cy="82" r="40"/><path d="M173.414,148.436c3.748,-4.913 6.436,-10.674 7.725,-16.943c7.028,-2.314 14.541,-3.568 22.345,-3.568l5.032,0c39.453,0 71.484,32.031 71.484,71.484l0,38.257l-75.793,0l-0,-35.642c-0,-22.847 -12.379,-42.824 -30.793,-53.588Z"/></g><g><path d="M189,202.334c0,-26.124 -21.21,-47.334 -47.334,-47.334l-3.332,0c-26.124,0 -47.334,21.21 -47.334,47.334l-0,49.332l98,0l0,-49.332Z"/><circle cx="140" cy="123" r="26"/></g></svg>