<?xml version="1.0" encoding="UTF-8" standalone="no"?><!DOCTYPE svg PUBLIC "-//W3C//DTD SVG 1.1//EN" "http://www.w3.org/Graphics/SVG/1.1/DTD/svg11.dtd"><svg width="100%" height="100%" viewBox="0 0 280 280" version="1.1" xmlns="http://www.w3.org/2000/svg" xmlns:xlink="http://www.w3.org/1999/xlink" xml:space="preserve" xmlns:serif="http://www.serif.com/" style="fill-rule:evenodd;clip-rule:evenodd;stroke-linejoin:round;stroke-miterlimit:2;"><rect id="heart" x="0" y="0" width="280" height="280" style="fill:none;"/><clipPath id="_clip1"><rect x="0" y="0" width="280" height="280"/></clipPath><g clip-path="url(#_clip1)"><path d="M279.508,92.407c-4.296,-44.034 -37.174,-75.942 -78.3,-75.942c-25.802,0 -47.458,15.604 -61.21,34.6c-13.741,-18.996 -35.408,-34.6 -61.21,-34.6c-41.126,0 -73.993,31.908 -78.301,75.942c-0.452,2.886 -1.55,13.138 2.434,29.173c5.88,23.659 19.395,45.143 39.102,62.136l89.694,76.75c2.315,1.97 5.266,3.069 8.292,3.069c3.026,-0 5.976,-1.099 8.281,-3.058l89.715,-76.772c19.686,-16.961 33.201,-38.444 39.08,-62.114c3.985,-16.046 2.876,-26.309 2.423,-29.184Z" style="fill-rule:nonzero;"/></g></svg>