<?xml version="1.0" encoding="UTF-8" standalone="no"?><!DOCTYPE svg PUBLIC "-//W3C//DTD SVG 1.1//EN" "http://www.w3.org/Graphics/SVG/1.1/DTD/svg11.dtd"><svg width="100%" height="100%" viewBox="0 0 280 280" version="1.1" xmlns="http://www.w3.org/2000/svg" xmlns:xlink="http://www.w3.org/1999/xlink" xml:space="preserve" xmlns:serif="http://www.serif.com/" style="fill-rule:evenodd;clip-rule:evenodd;stroke-linejoin:round;stroke-miterlimit:2;"><rect id="instagram" x="0" y="0" width="280" height="280" style="fill:none;"/><clipPath id="_clip1"><rect x="0" y="0" width="280" height="280"/></clipPath><g clip-path="url(#_clip1)"><path d="M82.018,0.982c-14.896,0.703 -25.069,3.08 -33.962,6.575c-9.203,3.587 -17.004,8.4 -24.766,16.19c-7.762,7.789 -12.541,15.596 -16.103,24.813c-3.447,8.913 -5.782,19.094 -6.44,33.999c-0.658,14.904 -0.804,19.695 -0.731,57.714c0.073,38.019 0.241,42.784 0.963,57.72c0.712,14.893 3.08,25.063 6.575,33.959c3.592,9.203 8.4,17.001 16.193,24.766c7.792,7.764 15.593,12.533 24.833,16.1c8.904,3.441 19.088,5.788 33.99,6.44c14.901,0.653 19.698,0.804 57.706,0.731c38.007,-0.073 42.793,-0.241 57.725,-0.949c14.933,-0.709 25.049,-3.094 33.948,-6.572c9.204,-3.601 17.007,-8.4 24.766,-16.195c7.759,-7.796 12.536,-15.608 16.095,-24.831c3.449,-8.904 5.793,-19.088 6.44,-33.978c0.652,-14.944 0.806,-19.715 0.733,-57.729c-0.072,-38.013 -0.243,-42.779 -0.952,-57.708c-0.708,-14.93 -3.08,-25.069 -6.571,-33.971c-3.598,-9.203 -8.4,-16.996 -16.19,-24.766c-7.79,-7.77 -15.607,-12.544 -24.828,-16.094c-8.91,-3.447 -19.088,-5.797 -33.99,-6.441c-14.901,-0.644 -19.698,-0.809 -57.72,-0.736c-38.021,0.073 -42.781,0.235 -57.714,0.963m1.635,253.09c-13.65,-0.594 -21.062,-2.862 -26.001,-4.76c-6.541,-2.52 -11.2,-5.567 -16.122,-10.441c-4.923,-4.875 -7.947,-9.551 -10.501,-16.078c-1.918,-4.94 -4.228,-12.343 -4.866,-25.993c-0.694,-14.753 -0.84,-19.183 -0.921,-56.561c-0.081,-37.377 0.061,-41.801 0.708,-56.56c0.583,-13.639 2.865,-21.06 4.76,-25.996c2.52,-6.549 5.555,-11.2 10.442,-16.12c4.886,-4.919 9.548,-7.949 16.08,-10.503c4.934,-1.926 12.337,-4.217 25.982,-4.866c14.764,-0.7 19.188,-0.84 56.56,-0.921c37.373,-0.082 41.808,0.058 56.578,0.708c13.639,0.594 21.062,2.853 25.993,4.76c6.543,2.52 11.2,5.547 16.12,10.441c4.919,4.895 7.952,9.54 10.505,16.087c1.929,4.919 4.22,12.32 4.864,25.973c0.703,14.764 0.862,19.191 0.93,56.56c0.067,37.37 -0.065,41.808 -0.712,56.561c-0.596,13.65 -2.859,21.065 -4.76,26.01c-2.52,6.538 -5.558,11.2 -10.447,16.117c-4.889,4.917 -9.545,7.946 -16.08,10.5c-4.928,1.924 -12.34,4.22 -25.973,4.869c-14.765,0.695 -19.189,0.84 -56.575,0.921c-37.386,0.082 -41.796,-0.07 -56.561,-0.708m114.13,-188.893c0.015,9.205 7.594,16.772 16.8,16.772c9.216,-0 16.8,-7.584 16.8,-16.8c0,-9.217 -7.584,-16.801 -16.8,-16.801c-0.011,0 -0.023,0 -0.034,0c-9.214,0.019 -16.782,7.614 -16.766,16.829m-129.67,74.965c0.078,39.705 32.324,71.818 72.02,71.743c39.696,-0.076 71.832,-32.318 71.756,-72.023c-0.075,-39.704 -32.329,-71.826 -72.031,-71.748c-39.701,0.078 -71.821,32.329 -71.745,72.028m25.217,-0.05c-0,-0.031 -0,-0.062 -0,-0.093c-0,-25.601 21.067,-46.668 46.668,-46.668c25.602,0 46.668,21.067 46.668,46.668c0,25.567 -21.009,46.618 -46.575,46.668c-0.033,0.001 -0.066,0.001 -0.098,0.001c-25.566,-0 -46.615,-21.011 -46.663,-46.576" style="fill-rule:nonzero;"/></g></svg>