<?xml version="1.0" encoding="UTF-8" standalone="no"?><!DOCTYPE svg PUBLIC "-//W3C//DTD SVG 1.1//EN" "http://www.w3.org/Graphics/SVG/1.1/DTD/svg11.dtd"><svg width="100%" height="100%" viewBox="0 0 280 280" version="1.1" xmlns="http://www.w3.org/2000/svg" xmlns:xlink="http://www.w3.org/1999/xlink" xml:space="preserve" xmlns:serif="http://www.serif.com/" style="fill-rule:evenodd;clip-rule:evenodd;stroke-linejoin:round;stroke-miterlimit:2;"><rect id="phone" x="0" y="0" width="280" height="280" style="fill:none;"/><path d="M260.927,186.207c-14.223,-11.43 -27.27,-16.986 -39.887,-16.986c-18.252,-0 -31.394,11.61 -43.292,23.504c-1.368,1.369 -3.024,2.008 -5.212,2.008c-10.026,0.001 -27.664,-12.555 -52.424,-37.318c-29.128,-29.13 -40.141,-47.658 -32.736,-55.066c20.075,-20.069 26.342,-40.187 -4.394,-78.412c-11.003,-13.695 -21.769,-20.351 -32.912,-20.351c-15.027,-0 -26.45,12.012 -36.529,22.611c-1.742,1.832 -3.388,3.563 -5.002,5.176c-11.391,11.391 -11.385,36.235 0.017,66.463c12.51,33.166 37.21,69.245 69.551,101.591c25.012,25.009 52.225,45.221 78.701,58.791c23.115,11.848 45.535,18.196 63.132,18.196l0.007,0c11.012,0 19.957,-2.402 25.865,-7.287c12,-9.922 34.336,-28.299 34.187,-50.129c-0.082,-11.708 -6.497,-22.68 -19.072,-32.791Z" style="fill-rule:nonzero;"/></svg>