<?xml version="1.0" encoding="UTF-8" standalone="no"?><!DOCTYPE svg PUBLIC "-//W3C//DTD SVG 1.1//EN" "http://www.w3.org/Graphics/SVG/1.1/DTD/svg11.dtd"><svg width="100%" height="100%" viewBox="0 0 280 280" version="1.1" xmlns="http://www.w3.org/2000/svg" xmlns:xlink="http://www.w3.org/1999/xlink" xml:space="preserve" xmlns:serif="http://www.serif.com/" style="fill-rule:evenodd;clip-rule:evenodd;stroke-linejoin:round;stroke-miterlimit:2;"><rect id="pinterest" x="0" y="0" width="280" height="280" style="fill:none;"/><path d="M139.942,0c-77.4,0 -139.942,62.657 -139.942,139.942c0,59.317 36.857,109.996 88.918,130.383c-1.267,-11.057 -2.303,-28.104 0.461,-40.197c2.534,-10.943 16.355,-69.568 16.355,-69.568c0,-0 -4.146,-8.409 -4.146,-20.733c-0,-19.465 11.287,-33.977 25.339,-33.977c11.979,-0 17.738,8.983 17.738,19.695c-0,11.979 -7.602,29.947 -11.633,46.647c-3.34,13.937 7.026,25.34 20.732,25.34c24.879,-0 43.998,-26.261 43.998,-64.039c0,-33.518 -24.072,-56.899 -58.511,-56.899c-39.852,-0 -63.233,29.831 -63.233,60.699c0,11.979 4.607,24.879 10.366,31.905c1.152,1.382 1.267,2.649 0.922,4.031c-1.037,4.377 -3.456,13.937 -3.916,15.895c-0.576,2.534 -2.074,3.11 -4.723,1.843c-17.277,-8.293 -28.103,-33.863 -28.103,-54.365c-0,-44.113 32.019,-84.656 92.488,-84.656c48.491,-0 86.269,34.553 86.269,80.855c0,48.26 -30.407,87.076 -72.562,87.076c-14.168,-0 -27.528,-7.372 -32.02,-16.125c-0,-0 -7.026,26.721 -8.754,33.286c-3.11,12.209 -11.633,27.413 -17.392,36.742c13.131,4.032 26.952,6.22 41.465,6.22c77.285,-0 139.942,-62.657 139.942,-139.942c-0.115,-77.401 -62.773,-140.058 -140.058,-140.058Z" style="fill-rule:nonzero;"/></svg>