<?xml version="1.0" encoding="UTF-8" standalone="no"?><!DOCTYPE svg PUBLIC "-//W3C//DTD SVG 1.1//EN" "http://www.w3.org/Graphics/SVG/1.1/DTD/svg11.dtd"><svg width="100%" height="100%" viewBox="0 0 280 280" version="1.1" xmlns="http://www.w3.org/2000/svg" xmlns:xlink="http://www.w3.org/1999/xlink" xml:space="preserve" xmlns:serif="http://www.serif.com/" style="fill-rule:evenodd;clip-rule:evenodd;stroke-linejoin:round;stroke-miterlimit:2;"><rect id="question" x="0" y="0" width="280" height="280" style="fill:none;"/><clipPath id="_clip1"><rect x="0" y="0" width="280" height="280"/></clipPath><g clip-path="url(#_clip1)"><path d="M140.258,0c-43.651,0 -71.924,17.884 -94.121,49.78c-4.027,5.786 -2.786,13.719 2.831,17.978l23.591,17.888c5.673,4.301 13.744,3.295 18.186,-2.269c13.698,-17.161 23.86,-27.042 45.257,-27.042c16.824,-0 37.634,10.827 37.634,27.142c0,12.333 -10.181,18.667 -26.793,27.98c-19.372,10.861 -45.007,24.377 -45.007,58.19l-0,5.353c-0,7.249 5.876,13.125 13.125,13.125l39.632,0c7.249,0 13.125,-5.876 13.125,-13.125l0,-3.157c0,-23.439 68.506,-24.415 68.506,-87.843c0.001,-47.766 -49.547,-84 -95.966,-84Zm-5.481,204.235c-20.888,0 -37.882,16.995 -37.882,37.883c-0,20.888 16.994,37.882 37.882,37.882c20.889,0 37.883,-16.994 37.883,-37.883c-0,-20.888 -16.994,-37.882 -37.883,-37.882Z" style="fill-rule:nonzero;"/></g></svg>