<?xml version="1.0" encoding="UTF-8" standalone="no"?><!DOCTYPE svg PUBLIC "-//W3C//DTD SVG 1.1//EN" "http://www.w3.org/Graphics/SVG/1.1/DTD/svg11.dtd"><svg width="100%" height="100%" viewBox="0 0 280 280" version="1.1" xmlns="http://www.w3.org/2000/svg" xmlns:xlink="http://www.w3.org/1999/xlink" xml:space="preserve" xmlns:serif="http://www.serif.com/" style="fill-rule:evenodd;clip-rule:evenodd;stroke-linejoin:round;stroke-miterlimit:2;"><rect id="save-the-date" x="0" y="0" width="280" height="280" style="fill:none;"/><clipPath id="_clip1"><rect x="0" y="0" width="280" height="280"/></clipPath><g clip-path="url(#_clip1)"><path d="M279.768,199.304c-2.026,-20.764 -17.529,-35.811 -36.923,-35.811c-12.167,0 -22.379,7.359 -28.863,16.316c-6.48,-8.957 -16.697,-16.316 -28.864,-16.316c-19.394,0 -34.892,15.047 -36.923,35.811c-0.213,1.361 -0.731,6.195 1.148,13.757c2.772,11.156 9.145,21.287 18.438,29.3l42.295,36.192c1.092,0.929 2.484,1.447 3.911,1.447c1.427,0 2.818,-0.518 3.905,-1.442l42.305,-36.202c9.283,-7.998 15.656,-18.129 18.429,-29.29c1.879,-7.567 1.356,-12.406 1.142,-13.762Z" style="fill-rule:nonzero;"/><path d="M105.134,190.661l0,-87.011l-10.326,-0c-7.395,3.942 -14.542,8.333 -21.402,13.148l0,11.337c6.117,-4.193 15.807,-10.114 20.521,-12.675l0.196,-0l0,75.201l11.011,-0Zm36.206,-0.129c0.772,-3.338 1.865,-6.508 3.243,-9.471c-5.492,-2.521 -8.429,-7.43 -8.912,-11.688l-11.158,-0c0.592,8.06 6.046,17.346 16.827,21.159Zm32.12,-33.14c2.811,-0.609 5.733,-0.927 8.738,-0.927c0.703,0 1.401,0.022 2.092,0.065c0.416,-3.464 0.629,-7.154 0.629,-11.055c-0,-31.548 -12.741,-43.522 -31.859,-43.522c-15.105,0 -29.313,10.962 -29.313,29.509c-0,18.923 13.441,28.874 27.339,28.874c12.17,-0 20.065,-6.134 22.561,-12.887l0.44,-0c-0.011,3.529 -0.221,6.852 -0.627,9.943Zm-0.776,-25.815c0,11.353 -9.119,19.248 -19.314,19.248c-9.804,0 -18.661,-6.247 -18.661,-19.575c-0,-13.425 9.494,-19.738 19.053,-19.738c10.325,0 18.922,6.493 18.922,20.065Z" style="fill-rule:nonzero;"/><path d="M179.987,261l-147.362,0c-17.898,0 -32.625,-14.727 -32.625,-32.625l0,-179.437c0,-17.898 14.727,-32.625 32.625,-32.625l16.313,-0l-0.001,-8.157c0,-4.474 3.682,-8.156 8.157,-8.156c4.474,0 8.156,3.682 8.156,8.156l-0,8.157l130.5,-0l0,-8.157c0,-4.474 3.682,-8.156 8.156,-8.156c4.475,0 8.157,3.682 8.157,8.156l-0,8.157l16.312,-0c17.898,-0 32.625,14.727 32.625,32.625l0,109.705c-4.149,-1.419 -8.594,-2.178 -13.235,-2.178c-1.039,0 -2.066,0.047 -3.077,0.139l-0,-91.354l-228.375,0l-0,163.125c-0,8.949 7.363,16.313 16.312,16.313l128.355,-0c0.501,0.457 1.01,0.909 1.527,1.355l17.48,14.957Z" style="fill-rule:nonzero;"/></g></svg>