<?xml version="1.0" encoding="UTF-8" standalone="no"?><!DOCTYPE svg PUBLIC "-//W3C//DTD SVG 1.1//EN" "http://www.w3.org/Graphics/SVG/1.1/DTD/svg11.dtd"><svg width="100%" height="100%" viewBox="0 0 280 280" version="1.1" xmlns="http://www.w3.org/2000/svg" xmlns:xlink="http://www.w3.org/1999/xlink" xml:space="preserve" xmlns:serif="http://www.serif.com/" style="fill-rule:evenodd;clip-rule:evenodd;stroke-linejoin:round;stroke-miterlimit:2;"><rect id="send" x="0" y="0" width="280" height="280" style="fill:none;"/><g><path d="M93.169,258.326c-0,1.678 0.931,3.217 2.413,4.001c1.48,0.783 3.28,0.682 4.664,-0.265l31.161,-21.278l-38.238,-18.225l0,35.767l-0,0Z" style="fill-rule:nonzero;"/><path d="M278.544,18.352c-0.855,-0.79 -1.96,-1.202 -3.077,-1.202c-0.673,-0 -1.344,0.149 -1.98,0.461l-269.016,131.96c-2.75,1.351 -4.49,4.159 -4.471,7.231c0.019,3.067 1.788,5.856 4.558,7.177l70.9,33.783l141.763,-116.518l-124.197,124.888l88.324,42.084c1.085,0.52 2.269,0.779 3.441,0.779c1,-0 1.991,-0.182 2.934,-0.553c2.057,-0.813 3.692,-2.442 4.508,-4.5l87.448,-220.605c0.692,-1.736 0.241,-3.721 -1.135,-4.985Z" style="fill-rule:nonzero;"/></g></svg>