<?xml version="1.0" encoding="UTF-8" standalone="no"?><!DOCTYPE svg PUBLIC "-//W3C//DTD SVG 1.1//EN" "http://www.w3.org/Graphics/SVG/1.1/DTD/svg11.dtd"><svg width="100%" height="100%" viewBox="0 0 280 129" version="1.1" xmlns="http://www.w3.org/2000/svg" xmlns:xlink="http://www.w3.org/1999/xlink" xml:space="preserve" xmlns:serif="http://www.serif.com/" style="fill-rule:evenodd;clip-rule:evenodd;stroke-linejoin:round;stroke-miterlimit:2;"><rect id="the-lodge-full" x="0" y="0" width="280" height="128.098" style="fill:none;"/><clipPath id="_clip1"><rect x="0" y="0" width="280" height="128.098"/></clipPath><g clip-path="url(#_clip1)"><path id="mountains" d="M166.975,28.705l10.942,-8.451l32.485,22.461l21.955,-16.956l38.735,26.782l-4.798,-0l-33.828,-22.835l-14.577,11.49l2.379,8.959l3.286,4.78l-45.528,-30.734l-3.586,3.026l2.396,9.019l4.758,5.916l-31.897,-21.532l-26.979,20.774l2.959,11.137l-4.51,-0.001l-5.479,-9.676l33.899,-26.181l17.388,12.022Z" style="fill:#8c8c8c;"/><path id="lodge" d="M21.316,73.977l0,4.108c7.511,0.079 14.142,0.151 14.233,0.157c10.969,-12.182 21.104,-25.001 32.855,-36.719c4.646,-4.632 7.801,-6.892 11.875,-7.732c2.303,-0.037 4.964,0.332 17.875,18.114c0.899,0.475 2.446,0.635 3.41,0.431c-3.681,-7.001 -17.086,-25.991 -19.146,-27.779c2.374,-3.559 4.748,-6.588 7.677,-9.665l28.396,45.509l-0,-7.861l1.511,0l-29.839,-52.54c-18.598,23.384 -39.22,49.334 -58.131,73.767c-0.03,0.04 -4.869,0.123 -10.716,0.21Zm-14.152,0.195c-3.594,0.047 -6.108,0.078 -6.108,0.078c-0.535,1.055 -0.89,2.256 -1.056,3.611c0,0 2.956,0.031 7.164,0.075l-0,-3.764Zm125.486,-12.216l0,5.029c7.75,-0.088 17.388,-0.197 18.727,-0.212c-1.158,-1.784 -2.793,-3.473 -4.066,-4.298c-1.315,-0.036 -7.822,-0.224 -14.661,-0.519Z" style="fill:#98712a;"/><path d="M20.856,33.234l0,1.15l-4.648,-0l0,12.289l-3.29,-0l0,-12.289l-4.658,-0l0,-1.15l12.596,0Z" style="fill:#4d4d4d;fill-rule:nonzero;"/><path d="M26.317,40.271l-0,6.402l-3.3,-0l-0,-13.439l3.3,0l-0,5.887l5.401,-0l0,-5.887l3.27,0l0,13.439l-3.27,-0l0,-6.402l-5.401,-0Z" style="fill:#4d4d4d;fill-rule:nonzero;"/><path d="M48.397,33.234l0,1.15l-6.739,-0l0,4.43l5.599,-0l0,1.149l-5.599,0l0,5.332l6.739,0l0,1.378l-10.039,-0l-0,-13.439l10.039,0Z" style="fill:#4d4d4d;fill-rule:nonzero;"/><g transform="matrix(2.35865,0,0,2.35865,-3985.83,-147.164)"><g transform="matrix(8.41322,0,0,8.41322,1693.16,116.525)"><path d="M0.388,-0.753l0.347,0.753l-0.126,-0l-0.112,-0.246l-0.316,0l-0.117,0.246l-0.062,-0l0.355,-0.753l0.031,-0Zm-0.186,0.46l0.272,-0l-0.134,-0.292l-0.138,0.292Z" style="fill:#4d4d4d;fill-rule:nonzero;"/></g><g transform="matrix(8.41322,0,0,8.41322,1698.71,116.525)"><path d="M0.679,-0.737l-0,0.048l-0.267,0l0,0.689l-0.124,-0l0,-0.689l-0.266,0l-0,-0.048l0.657,0Z" style="fill:#4d4d4d;fill-rule:nonzero;"/></g><g transform="matrix(10.2828,0,0,10.2828,1706.56,116.525)"><path d="M0.679,-0.737l-0,0.048l-0.267,0l0,0.689l-0.124,-0l0,-0.689l-0.266,0l-0,-0.048l0.657,0Z" style="fill:#4d4d4d;fill-rule:nonzero;"/></g><g transform="matrix(8.41322,0,0,8.41322,1713.76,116.525)"><path d="M0.1,-0.737l0.256,0c0.044,0 0.082,0.005 0.116,0.014c0.033,0.01 0.061,0.023 0.083,0.04c0.022,0.017 0.039,0.038 0.05,0.061c0.012,0.024 0.017,0.049 0.017,0.077c0,0.023 -0.004,0.044 -0.013,0.064c-0.009,0.02 -0.021,0.038 -0.036,0.055c-0.016,0.016 -0.035,0.03 -0.057,0.041c-0.023,0.012 -0.047,0.021 -0.074,0.028l0.269,0.357l-0.144,-0l-0.256,-0.346l-0.087,-0l-0,0.346l-0.124,-0l0,-0.737Zm0.124,0.354l0.072,-0c0.027,-0 0.053,-0.004 0.077,-0.011c0.023,-0.008 0.043,-0.018 0.061,-0.032c0.017,-0.013 0.03,-0.03 0.04,-0.049c0.01,-0.019 0.014,-0.041 0.014,-0.065c0,-0.022 -0.003,-0.043 -0.011,-0.061c-0.008,-0.019 -0.018,-0.034 -0.032,-0.048c-0.014,-0.013 -0.031,-0.023 -0.05,-0.03c-0.019,-0.008 -0.04,-0.012 -0.062,-0.012l-0.109,0l-0,0.308Z" style="fill:#4d4d4d;fill-rule:nonzero;"/></g><g transform="matrix(8.41322,0,0,8.41322,1719.75,116.525)"><path d="M0.388,-0.753l0.347,0.753l-0.126,-0l-0.112,-0.246l-0.316,0l-0.117,0.246l-0.062,-0l0.355,-0.753l0.031,-0Zm-0.186,0.46l0.272,-0l-0.134,-0.292l-0.138,0.292Z" style="fill:#4d4d4d;fill-rule:nonzero;"/></g><g transform="matrix(8.41322,0,0,8.41322,1725.3,116.525)"><path d="M0.133,-0.737l0.278,0.586l0.258,-0.586l0.059,0l-0.334,0.754l-0.032,0l-0.36,-0.754l0.131,0Z" style="fill:#4d4d4d;fill-rule:nonzero;"/></g><g transform="matrix(8.41322,0,0,8.41322,1731.44,116.525)"><path d="M0.612,-0.737l0,0.048l-0.388,0l-0,0.263l0.26,0l-0,0.048l-0.26,0l-0,0.33l0.388,0l0,0.048l-0.512,-0l0,-0.737l0.512,0Z" style="fill:#4d4d4d;fill-rule:nonzero;"/></g><g transform="matrix(8.41322,0,0,8.41322,1736.98,116.525)"><path d="M0.1,-0.737l0.256,0c0.044,0 0.082,0.005 0.116,0.014c0.033,0.01 0.061,0.023 0.083,0.04c0.022,0.017 0.039,0.038 0.05,0.061c0.012,0.024 0.017,0.049 0.017,0.077c0,0.023 -0.004,0.044 -0.013,0.064c-0.009,0.02 -0.021,0.038 -0.036,0.055c-0.016,0.016 -0.035,0.03 -0.057,0.041c-0.023,0.012 -0.047,0.021 -0.074,0.028l0.269,0.357l-0.144,-0l-0.256,-0.346l-0.087,-0l-0,0.346l-0.124,-0l0,-0.737Zm0.124,0.354l0.072,-0c0.027,-0 0.053,-0.004 0.077,-0.011c0.023,-0.008 0.043,-0.018 0.061,-0.032c0.017,-0.013 0.03,-0.03 0.04,-0.049c0.01,-0.019 0.014,-0.041 0.014,-0.065c0,-0.022 -0.003,-0.043 -0.011,-0.061c-0.008,-0.019 -0.018,-0.034 -0.032,-0.048c-0.014,-0.013 -0.031,-0.023 -0.05,-0.03c-0.019,-0.008 -0.04,-0.012 -0.062,-0.012l-0.109,0l-0,0.308Z" style="fill:#4d4d4d;fill-rule:nonzero;"/></g><g transform="matrix(8.41322,0,0,8.41322,1742.96,116.525)"><path d="M0.341,-0.029c0.018,-0 0.036,-0.003 0.054,-0.008c0.018,-0.005 0.034,-0.012 0.048,-0.022c0.014,-0.01 0.025,-0.022 0.034,-0.036c0.008,-0.015 0.012,-0.031 0.012,-0.05c0,-0.023 -0.005,-0.043 -0.017,-0.06c-0.012,-0.018 -0.027,-0.034 -0.046,-0.049c-0.019,-0.014 -0.04,-0.028 -0.065,-0.041c-0.024,-0.013 -0.049,-0.026 -0.074,-0.039c-0.025,-0.013 -0.05,-0.026 -0.074,-0.041c-0.024,-0.014 -0.046,-0.03 -0.065,-0.048c-0.019,-0.017 -0.034,-0.037 -0.045,-0.058c-0.012,-0.022 -0.018,-0.047 -0.018,-0.075c0,-0.028 0.005,-0.054 0.016,-0.078c0.01,-0.025 0.026,-0.045 0.046,-0.063c0.021,-0.018 0.046,-0.031 0.076,-0.041c0.029,-0.01 0.063,-0.015 0.102,-0.015c0.035,-0 0.066,0.003 0.093,0.011c0.028,0.007 0.052,0.018 0.073,0.033c0.02,0.014 0.038,0.032 0.052,0.053c0.015,0.021 0.026,0.045 0.035,0.073l-0.063,0.029c-0.007,-0.022 -0.017,-0.043 -0.028,-0.062c-0.012,-0.019 -0.026,-0.035 -0.041,-0.048c-0.016,-0.013 -0.035,-0.024 -0.056,-0.031c-0.021,-0.007 -0.044,-0.011 -0.071,-0.011c-0.023,0 -0.043,0.004 -0.061,0.01c-0.017,0.007 -0.032,0.015 -0.043,0.026c-0.012,0.01 -0.021,0.022 -0.026,0.035c-0.006,0.013 -0.009,0.027 -0.009,0.041c0,0.019 0.006,0.036 0.018,0.053c0.012,0.016 0.027,0.031 0.047,0.045c0.02,0.014 0.042,0.028 0.067,0.042c0.025,0.013 0.05,0.026 0.076,0.04c0.026,0.014 0.052,0.028 0.077,0.043c0.025,0.015 0.047,0.031 0.067,0.048c0.019,0.018 0.035,0.037 0.047,0.058c0.012,0.021 0.018,0.045 0.018,0.071c-0,0.029 -0.006,0.056 -0.017,0.082c-0.011,0.026 -0.028,0.048 -0.05,0.067c-0.022,0.019 -0.05,0.034 -0.083,0.046c-0.033,0.011 -0.071,0.016 -0.115,0.016c-0.035,0 -0.067,-0.004 -0.095,-0.011c-0.028,-0.008 -0.052,-0.02 -0.073,-0.034c-0.022,-0.015 -0.04,-0.033 -0.055,-0.055c-0.015,-0.021 -0.028,-0.045 -0.037,-0.073l0.066,-0.027c0.008,0.024 0.018,0.046 0.031,0.065c0.013,0.019 0.029,0.035 0.046,0.048c0.017,0.013 0.037,0.023 0.058,0.03c0.021,0.007 0.044,0.011 0.068,0.011Z" style="fill:#4d4d4d;fill-rule:nonzero;"/></g><g transform="matrix(8.41322,0,0,8.41322,1748.59,116.525)"><path d="M0.612,-0.737l0,0.048l-0.388,0l-0,0.263l0.26,0l-0,0.048l-0.26,0l-0,0.33l0.388,0l0,0.048l-0.512,-0l0,-0.737l0.512,0Z" style="fill:#4d4d4d;fill-rule:nonzero;"/></g><g transform="matrix(10.2828,0,0,10.2828,1756.09,116.525)"><path d="M0.1,-0.737l0.127,0l0.286,0.565l0.006,0l0.282,-0.565l0.124,0l0,0.737l-0.124,-0l-0,-0.604l-0.004,0l-0.303,0.604l-0.025,-0l-0.306,-0.599l-0.008,0l-0,0.599l-0.055,-0l-0,-0.737Z" style="fill:#4d4d4d;fill-rule:nonzero;"/></g><g transform="matrix(8.41322,0,0,8.41322,1766.63,116.525)"><path d="M0.473,0.017c-0.057,0 -0.11,-0.01 -0.159,-0.03c-0.05,-0.021 -0.093,-0.049 -0.129,-0.084c-0.037,-0.035 -0.065,-0.077 -0.086,-0.124c-0.021,-0.047 -0.032,-0.098 -0.032,-0.151c0,-0.035 0.005,-0.069 0.014,-0.102c0.01,-0.032 0.023,-0.063 0.041,-0.091c0.017,-0.028 0.038,-0.054 0.063,-0.077c0.024,-0.023 0.052,-0.043 0.082,-0.059c0.03,-0.017 0.062,-0.03 0.097,-0.039c0.035,-0.009 0.072,-0.013 0.109,-0.013c0.038,-0 0.075,0.004 0.11,0.013c0.035,0.009 0.067,0.022 0.097,0.039c0.03,0.016 0.058,0.036 0.082,0.059c0.025,0.023 0.046,0.049 0.063,0.077c0.018,0.028 0.031,0.059 0.041,0.091c0.009,0.033 0.014,0.067 0.014,0.102c0,0.036 -0.005,0.07 -0.014,0.103c-0.01,0.033 -0.023,0.064 -0.041,0.093c-0.017,0.029 -0.038,0.055 -0.063,0.079c-0.024,0.023 -0.052,0.044 -0.082,0.061c-0.03,0.017 -0.062,0.03 -0.097,0.039c-0.035,0.01 -0.072,0.014 -0.11,0.014Zm0,-0.036c0.043,-0 0.08,-0.009 0.112,-0.027c0.033,-0.017 0.06,-0.042 0.082,-0.073c0.022,-0.032 0.039,-0.069 0.05,-0.112c0.012,-0.043 0.017,-0.09 0.017,-0.141c0,-0.051 -0.005,-0.097 -0.017,-0.14c-0.011,-0.042 -0.028,-0.078 -0.05,-0.109c-0.022,-0.03 -0.049,-0.054 -0.082,-0.071c-0.032,-0.017 -0.069,-0.025 -0.112,-0.025c-0.043,-0 -0.08,0.008 -0.113,0.025c-0.032,0.017 -0.059,0.041 -0.081,0.071c-0.022,0.031 -0.039,0.067 -0.05,0.109c-0.011,0.043 -0.017,0.089 -0.017,0.14c0,0.051 0.006,0.098 0.017,0.141c0.011,0.043 0.028,0.08 0.05,0.112c0.022,0.031 0.049,0.056 0.081,0.073c0.033,0.018 0.07,0.027 0.113,0.027Z" style="fill:#4d4d4d;fill-rule:nonzero;"/></g><g transform="matrix(8.41322,0,0,8.41322,1774.59,116.525)"><path d="M0.089,-0.737l0.124,0l-0,0.479c-0,0.031 0.005,0.061 0.016,0.088c0.011,0.028 0.026,0.052 0.046,0.073c0.02,0.021 0.044,0.037 0.073,0.049c0.028,0.012 0.059,0.018 0.094,0.018c0.035,-0 0.067,-0.006 0.095,-0.018c0.028,-0.012 0.052,-0.028 0.072,-0.049c0.02,-0.021 0.035,-0.045 0.046,-0.073c0.01,-0.027 0.016,-0.057 0.016,-0.088l-0,-0.479l0.054,0l-0,0.479c-0,0.037 -0.006,0.073 -0.018,0.106c-0.013,0.034 -0.032,0.063 -0.058,0.088c-0.026,0.025 -0.059,0.045 -0.1,0.059c-0.041,0.015 -0.09,0.022 -0.147,0.022c-0.051,0 -0.095,-0.007 -0.135,-0.022c-0.039,-0.014 -0.071,-0.034 -0.098,-0.059c-0.026,-0.026 -0.046,-0.055 -0.06,-0.089c-0.013,-0.034 -0.02,-0.07 -0.02,-0.109l-0,-0.475Z" style="fill:#4d4d4d;fill-rule:nonzero;"/></g><g transform="matrix(8.41322,0,0,8.41322,1781.43,116.525)"><path d="M0.1,-0.737l0.069,0l0.483,0.539l0.006,0l-0,-0.539l0.054,0l0,0.754l-0.029,0l-0.522,-0.599l-0.005,0l0,0.582l-0.056,-0l-0,-0.737Z" style="fill:#4d4d4d;fill-rule:nonzero;"/></g><g transform="matrix(8.41322,0,0,8.41322,1788.27,116.525)"><path d="M0.679,-0.737l-0,0.048l-0.267,0l0,0.689l-0.124,-0l0,-0.689l-0.266,0l-0,-0.048l0.657,0Z" style="fill:#4d4d4d;fill-rule:nonzero;"/></g><g transform="matrix(8.41322,0,0,8.41322,1793.51,116.525)"><path d="M0.388,-0.753l0.347,0.753l-0.126,-0l-0.112,-0.246l-0.316,0l-0.117,0.246l-0.062,-0l0.355,-0.753l0.031,-0Zm-0.186,0.46l0.272,-0l-0.134,-0.292l-0.138,0.292Z" style="fill:#4d4d4d;fill-rule:nonzero;"/></g><g transform="matrix(8.41322,0,0,8.41322,1799.71,116.525)"><rect x="0.1" y="-0.737" width="0.124" height="0.737" style="fill:#4d4d4d;fill-rule:nonzero;"/></g><g transform="matrix(8.41322,0,0,8.41322,1802.44,116.525)"><path d="M0.1,-0.737l0.069,0l0.483,0.539l0.006,0l-0,-0.539l0.054,0l0,0.754l-0.029,0l-0.522,-0.599l-0.005,0l0,0.582l-0.056,-0l-0,-0.737Z" style="fill:#4d4d4d;fill-rule:nonzero;"/></g></g><path d="M8.161,53.541l12.159,-0l0,44.436l25.267,0l0,5.075l-37.426,0l0,-49.511Z" style="fill:#4d4d4d;fill-rule:nonzero;"/><path d="M80.274,104.148c-3.992,-0 -7.716,-0.645 -11.173,-1.935c-3.456,-1.29 -6.45,-3.098 -8.982,-5.423c-2.531,-2.324 -4.521,-5.087 -5.97,-8.288c-1.448,-3.201 -2.172,-6.712 -2.172,-10.534c-0,-3.749 0.724,-7.187 2.172,-10.315c1.449,-3.128 3.439,-5.811 5.97,-8.051c2.532,-2.239 5.526,-3.98 8.982,-5.221c3.457,-1.242 7.181,-1.862 11.173,-1.862c3.992,-0 7.711,0.626 11.155,1.88c3.444,1.254 6.438,3 8.982,5.24c2.544,2.239 4.546,4.911 6.007,8.014c1.46,3.104 2.19,6.506 2.19,10.206c0,2.628 -0.328,5.105 -0.986,7.43c-0.657,2.325 -1.594,4.461 -2.811,6.408c-1.217,1.947 -2.678,3.688 -4.382,5.221c-1.704,1.534 -3.608,2.836 -5.714,3.907c-2.105,1.071 -4.375,1.893 -6.81,2.465c-2.434,0.572 -4.977,0.858 -7.631,0.858Zm0,-4.163c2.41,0 4.54,-0.553 6.39,-1.661c1.85,-1.108 3.396,-2.635 4.637,-4.582c1.242,-1.948 2.185,-4.266 2.83,-6.956c0.645,-2.69 0.968,-5.629 0.968,-8.818c-0,-3.14 -0.323,-6.012 -0.968,-8.617c-0.645,-2.605 -1.588,-4.844 -2.83,-6.718c-1.241,-1.875 -2.787,-3.335 -4.637,-4.382c-1.85,-1.047 -3.98,-1.57 -6.39,-1.57c-2.434,0 -4.576,0.523 -6.426,1.57c-1.85,1.047 -3.396,2.507 -4.637,4.382c-1.242,1.874 -2.179,4.113 -2.812,6.718c-0.633,2.605 -0.949,5.477 -0.949,8.617c0,3.189 0.316,6.128 0.949,8.818c0.633,2.69 1.57,5.008 2.812,6.956c1.241,1.947 2.787,3.474 4.637,4.582c1.85,1.108 3.992,1.661 6.426,1.661Z" style="fill:#4d4d4d;fill-rule:nonzero;"/><path d="M119.489,53.541l17.965,-0c4.624,-0 8.872,0.542 12.743,1.625c3.87,1.083 7.205,2.659 10.004,4.728c2.799,2.069 4.972,4.613 6.518,7.631c1.545,3.019 2.318,6.463 2.318,10.334c0,3.48 -0.657,6.748 -1.971,9.803c-1.315,3.055 -3.232,5.727 -5.751,8.015c-2.52,2.288 -5.617,4.089 -9.293,5.404c-3.675,1.314 -7.887,1.971 -12.633,1.971l-19.9,0l0,-49.511Zm12.159,44.436l6.463,0c2.385,0 4.631,-0.438 6.736,-1.314c2.106,-0.877 3.95,-2.167 5.532,-3.871c1.582,-1.704 2.83,-3.797 3.743,-6.28c0.913,-2.483 1.369,-5.331 1.369,-8.544c-0,-2.775 -0.432,-5.349 -1.296,-7.722c-0.864,-2.374 -2.063,-4.425 -3.597,-6.153c-1.533,-1.728 -3.365,-3.085 -5.495,-4.071c-2.13,-0.986 -4.461,-1.479 -6.992,-1.479l-6.463,0l-0,39.434Z" style="fill:#4d4d4d;fill-rule:nonzero;"/><path d="M210.37,78.917l20.557,0l-0,19.06c-1.583,0.852 -3.165,1.631 -4.747,2.337c-1.582,0.706 -3.274,1.314 -5.075,1.826c-1.802,0.511 -3.767,0.912 -5.897,1.205c-2.13,0.292 -4.522,0.438 -7.175,0.438c-4.26,-0 -8.185,-0.597 -11.775,-1.789c-3.591,-1.193 -6.694,-2.873 -9.311,-5.039c-2.617,-2.167 -4.656,-4.783 -6.116,-7.85c-1.461,-3.068 -2.191,-6.463 -2.191,-10.188c0,-3.943 0.73,-7.546 2.191,-10.807c1.46,-3.262 3.493,-6.062 6.098,-8.398c2.604,-2.337 5.702,-4.151 9.292,-5.441c3.591,-1.29 7.516,-1.935 11.776,-1.935c2.507,0 4.923,0.341 7.247,1.022c2.325,0.682 4.473,1.583 6.445,2.702c1.972,1.12 3.749,2.404 5.331,3.852c1.582,1.449 2.884,2.94 3.907,4.473l-5.003,4.564c-1.046,-1.484 -2.142,-2.86 -3.286,-4.126c-1.144,-1.265 -2.361,-2.367 -3.651,-3.304c-1.29,-0.937 -2.672,-1.674 -4.144,-2.209c-1.473,-0.536 -3.049,-0.803 -4.729,-0.803c-2.556,-0 -4.935,0.462 -7.138,1.387c-2.203,0.925 -4.114,2.258 -5.733,3.998c-1.618,1.741 -2.884,3.877 -3.797,6.408c-0.913,2.532 -1.369,5.404 -1.369,8.617c-0,3.214 0.487,6.049 1.46,8.508c0.974,2.458 2.301,4.528 3.98,6.207c1.68,1.68 3.646,2.952 5.897,3.816c2.252,0.864 4.668,1.296 7.248,1.296c1.533,-0 2.982,-0.201 4.345,-0.603c1.363,-0.401 2.617,-1.016 3.761,-1.843l-0,-13.145l-8.398,-0l-0,-4.236Z" style="fill:#4d4d4d;fill-rule:nonzero;"/><path d="M280,53.541l0,4.235l-24.829,0l0,16.322l20.63,-0l0,4.235l-20.63,0l0,19.644l24.829,0l0,5.075l-36.988,0l0,-49.511l36.988,-0Z" style="fill:#4d4d4d;fill-rule:nonzero;"/></g></svg>