<?xml version="1.0" encoding="UTF-8" standalone="no"?><!DOCTYPE svg PUBLIC "-//W3C//DTD SVG 1.1//EN" "http://www.w3.org/Graphics/SVG/1.1/DTD/svg11.dtd"><svg width="100%" height="100%" viewBox="0 0 1167 1167" version="1.1" xmlns="http://www.w3.org/2000/svg" xmlns:xlink="http://www.w3.org/1999/xlink" xml:space="preserve" xmlns:serif="http://www.serif.com/"><rect x="0" y="0" width="1166.67" height="1166.67" fill="none"/><path d="M464.385,610.018c51.605,-51.46 86.649,-76.56 131.908,-85.894c25.584,-0.413 55.143,3.692 198.558,201.217c9.986,5.273 27.176,7.06 37.882,4.789c-40.887,-77.773 -189.795,-288.711 -212.677,-308.579c26.373,-39.535 52.738,-73.178 85.28,-107.365l361.847,579.931c3.622,-0.048 99.484,-1.138 99.484,-1.138c-1.388,-14.538 -5.055,-31.671 -16.118,-57.22c0,-0 -38.099,-1.869 -55.949,-2.904l-388.515,-684.089c-206.588,259.756 -435.664,548.017 -645.729,819.431c-0.208,0.269 -52.065,1.266 -52.065,1.266c-7.737,15.428 -9.017,31.296 -7.979,47.321c0,0 98.35,1.068 99.107,1.117c121.846,-135.316 234.435,-277.72 364.966,-407.883Z" fill="#98712a"/></svg>