<?xml version="1.0" encoding="UTF-8" standalone="no"?><!DOCTYPE svg PUBLIC "-//W3C//DTD SVG 1.1//EN" "http://www.w3.org/Graphics/SVG/1.1/DTD/svg11.dtd"><svg width="100%" height="100%" viewBox="0 0 1167 538" version="1.1" xmlns="http://www.w3.org/2000/svg" xmlns:xlink="http://www.w3.org/1999/xlink" xml:space="preserve" xmlns:serif="http://www.serif.com/" style="fill-rule:evenodd;clip-rule:evenodd;stroke-linejoin:round;stroke-miterlimit:2;"><rect x="0" y="0" width="1166.67" height="533.742" style="fill:none;"/><g><path d="M695.727,119.603l45.593,-35.211l135.355,93.587l91.48,-70.65l161.394,111.591l-19.991,0.001l-140.948,-95.148l-60.738,47.879l9.911,37.325l13.693,19.917l-189.701,-128.058l-14.941,12.609l9.984,37.58l19.824,24.65l-132.906,-89.719l-112.413,86.559l12.329,46.405l-18.79,-0.002l-22.83,-40.319l141.249,-109.086l72.446,50.09Z" style="fill:#8c8c8c;"/><path d="M88.817,308.237l-0,17.116c31.296,0.332 58.926,0.631 59.303,0.655c45.704,-50.756 87.936,-104.171 136.897,-152.995c19.357,-19.302 32.502,-28.717 49.478,-32.218c9.597,-0.155 20.684,1.385 74.478,75.476c3.746,1.977 10.194,2.647 14.209,1.796c-15.336,-29.172 -71.191,-108.294 -79.774,-115.747c9.893,-14.829 19.782,-27.448 31.989,-40.272l118.314,189.622l-0,-32.753l6.296,-0l-124.329,-218.917c-77.49,97.433 -163.416,205.558 -242.21,307.364c-0.126,0.163 -20.29,0.511 -44.651,0.873Zm-58.969,0.814c-14.975,0.195 -25.447,0.326 -25.447,0.326c-2.23,4.394 -3.709,9.399 -4.401,15.044c0,0 12.315,0.129 29.848,0.312l0,-15.682Zm522.862,-50.9l-0,20.951c32.288,-0.366 72.447,-0.82 78.028,-0.883c-4.827,-7.434 -11.64,-14.47 -16.94,-17.905c-5.481,-0.152 -32.594,-0.933 -61.088,-2.163Z" style="fill:#98712a;"/><path d="M86.901,138.476l0,4.79l-19.366,0l0,51.203l-13.709,0l-0,-51.203l-19.408,0l0,-4.79l52.483,0Z" style="fill:#4d4d4d;fill-rule:nonzero;"/><path d="M109.654,167.794l-0,26.675l-13.751,0l0,-55.993l13.751,0l-0,24.528l22.504,0l0,-24.528l13.627,0l0,55.993l-13.627,0l0,-26.675l-22.504,-0Z" style="fill:#4d4d4d;fill-rule:nonzero;"/><path d="M201.654,138.476l0,4.79l-28.079,0l0,18.458l23.331,-0l-0,4.79l-23.331,-0l0,22.215l28.079,0l0,5.74l-41.829,0l-0,-55.993l41.829,0Z" style="fill:#4d4d4d;fill-rule:nonzero;"/><g transform="matrix(9.82771,0,0,9.82771,-16607.6,-613.182)"><g transform="matrix(8.41322,0,0,8.41322,1693.16,116.525)"><path d="M0.388,-0.753l0.347,0.753l-0.126,-0l-0.112,-0.246l-0.316,0l-0.117,0.246l-0.062,-0l0.355,-0.753l0.031,-0Zm-0.186,0.46l0.272,-0l-0.134,-0.292l-0.138,0.292Z" style="fill:#4d4d4d;fill-rule:nonzero;"/></g><g transform="matrix(8.41322,0,0,8.41322,1698.71,116.525)"><path d="M0.679,-0.737l-0,0.048l-0.267,0l0,0.689l-0.124,-0l0,-0.689l-0.266,0l-0,-0.048l0.657,0Z" style="fill:#4d4d4d;fill-rule:nonzero;"/></g><g transform="matrix(10.2828,0,0,10.2828,1706.56,116.525)"><path d="M0.679,-0.737l-0,0.048l-0.267,0l0,0.689l-0.124,-0l0,-0.689l-0.266,0l-0,-0.048l0.657,0Z" style="fill:#4d4d4d;fill-rule:nonzero;"/></g><g transform="matrix(8.41322,0,0,8.41322,1713.76,116.525)"><path d="M0.1,-0.737l0.256,0c0.044,0 0.082,0.005 0.116,0.014c0.033,0.01 0.061,0.023 0.083,0.04c0.022,0.017 0.039,0.038 0.05,0.061c0.012,0.024 0.017,0.049 0.017,0.077c0,0.023 -0.004,0.044 -0.013,0.064c-0.009,0.02 -0.021,0.038 -0.036,0.055c-0.016,0.016 -0.035,0.03 -0.057,0.041c-0.023,0.012 -0.047,0.021 -0.074,0.028l0.269,0.357l-0.144,-0l-0.256,-0.346l-0.087,-0l-0,0.346l-0.124,-0l0,-0.737Zm0.124,0.354l0.072,-0c0.027,-0 0.053,-0.004 0.077,-0.011c0.023,-0.008 0.043,-0.018 0.061,-0.032c0.017,-0.013 0.03,-0.03 0.04,-0.049c0.01,-0.019 0.014,-0.041 0.014,-0.065c0,-0.022 -0.003,-0.043 -0.011,-0.061c-0.008,-0.019 -0.018,-0.034 -0.032,-0.048c-0.014,-0.013 -0.031,-0.023 -0.05,-0.03c-0.019,-0.008 -0.04,-0.012 -0.062,-0.012l-0.109,0l-0,0.308Z" style="fill:#4d4d4d;fill-rule:nonzero;"/></g><g transform="matrix(8.41322,0,0,8.41322,1719.75,116.525)"><path d="M0.388,-0.753l0.347,0.753l-0.126,-0l-0.112,-0.246l-0.316,0l-0.117,0.246l-0.062,-0l0.355,-0.753l0.031,-0Zm-0.186,0.46l0.272,-0l-0.134,-0.292l-0.138,0.292Z" style="fill:#4d4d4d;fill-rule:nonzero;"/></g><g transform="matrix(8.41322,0,0,8.41322,1725.3,116.525)"><path d="M0.133,-0.737l0.278,0.586l0.258,-0.586l0.059,0l-0.334,0.754l-0.032,0l-0.36,-0.754l0.131,0Z" style="fill:#4d4d4d;fill-rule:nonzero;"/></g><g transform="matrix(8.41322,0,0,8.41322,1731.44,116.525)"><path d="M0.612,-0.737l0,0.048l-0.388,0l-0,0.263l0.26,0l-0,0.048l-0.26,0l-0,0.33l0.388,0l0,0.048l-0.512,-0l0,-0.737l0.512,0Z" style="fill:#4d4d4d;fill-rule:nonzero;"/></g><g transform="matrix(8.41322,0,0,8.41322,1736.98,116.525)"><path d="M0.1,-0.737l0.256,0c0.044,0 0.082,0.005 0.116,0.014c0.033,0.01 0.061,0.023 0.083,0.04c0.022,0.017 0.039,0.038 0.05,0.061c0.012,0.024 0.017,0.049 0.017,0.077c0,0.023 -0.004,0.044 -0.013,0.064c-0.009,0.02 -0.021,0.038 -0.036,0.055c-0.016,0.016 -0.035,0.03 -0.057,0.041c-0.023,0.012 -0.047,0.021 -0.074,0.028l0.269,0.357l-0.144,-0l-0.256,-0.346l-0.087,-0l-0,0.346l-0.124,-0l0,-0.737Zm0.124,0.354l0.072,-0c0.027,-0 0.053,-0.004 0.077,-0.011c0.023,-0.008 0.043,-0.018 0.061,-0.032c0.017,-0.013 0.03,-0.03 0.04,-0.049c0.01,-0.019 0.014,-0.041 0.014,-0.065c0,-0.022 -0.003,-0.043 -0.011,-0.061c-0.008,-0.019 -0.018,-0.034 -0.032,-0.048c-0.014,-0.013 -0.031,-0.023 -0.05,-0.03c-0.019,-0.008 -0.04,-0.012 -0.062,-0.012l-0.109,0l-0,0.308Z" style="fill:#4d4d4d;fill-rule:nonzero;"/></g><g transform="matrix(8.41322,0,0,8.41322,1742.96,116.525)"><path d="M0.341,-0.029c0.018,-0 0.036,-0.003 0.054,-0.008c0.018,-0.005 0.034,-0.012 0.048,-0.022c0.014,-0.01 0.025,-0.022 0.034,-0.036c0.008,-0.015 0.012,-0.031 0.012,-0.05c0,-0.023 -0.005,-0.043 -0.017,-0.06c-0.012,-0.018 -0.027,-0.034 -0.046,-0.049c-0.019,-0.014 -0.04,-0.028 -0.065,-0.041c-0.024,-0.013 -0.049,-0.026 -0.074,-0.039c-0.025,-0.013 -0.05,-0.026 -0.074,-0.041c-0.024,-0.014 -0.046,-0.03 -0.065,-0.048c-0.019,-0.017 -0.034,-0.037 -0.045,-0.058c-0.012,-0.022 -0.018,-0.047 -0.018,-0.075c0,-0.028 0.005,-0.054 0.016,-0.078c0.01,-0.025 0.026,-0.045 0.046,-0.063c0.021,-0.018 0.046,-0.031 0.076,-0.041c0.029,-0.01 0.063,-0.015 0.102,-0.015c0.035,-0 0.066,0.003 0.093,0.011c0.028,0.007 0.052,0.018 0.073,0.033c0.02,0.014 0.038,0.032 0.052,0.053c0.015,0.021 0.026,0.045 0.035,0.073l-0.063,0.029c-0.007,-0.022 -0.017,-0.043 -0.028,-0.062c-0.012,-0.019 -0.026,-0.035 -0.041,-0.048c-0.016,-0.013 -0.035,-0.024 -0.056,-0.031c-0.021,-0.007 -0.044,-0.011 -0.071,-0.011c-0.023,0 -0.043,0.004 -0.061,0.01c-0.017,0.007 -0.032,0.015 -0.043,0.026c-0.012,0.01 -0.021,0.022 -0.026,0.035c-0.006,0.013 -0.009,0.027 -0.009,0.041c0,0.019 0.006,0.036 0.018,0.053c0.012,0.016 0.027,0.031 0.047,0.045c0.02,0.014 0.042,0.028 0.067,0.042c0.025,0.013 0.05,0.026 0.076,0.04c0.026,0.014 0.052,0.028 0.077,0.043c0.025,0.015 0.047,0.031 0.067,0.048c0.019,0.018 0.035,0.037 0.047,0.058c0.012,0.021 0.018,0.045 0.018,0.071c-0,0.029 -0.006,0.056 -0.017,0.082c-0.011,0.026 -0.028,0.048 -0.05,0.067c-0.022,0.019 -0.05,0.034 -0.083,0.046c-0.033,0.011 -0.071,0.016 -0.115,0.016c-0.035,0 -0.067,-0.004 -0.095,-0.011c-0.028,-0.008 -0.052,-0.02 -0.073,-0.034c-0.022,-0.015 -0.04,-0.033 -0.055,-0.055c-0.015,-0.021 -0.028,-0.045 -0.037,-0.073l0.066,-0.027c0.008,0.024 0.018,0.046 0.031,0.065c0.013,0.019 0.029,0.035 0.046,0.048c0.017,0.013 0.037,0.023 0.058,0.03c0.021,0.007 0.044,0.011 0.068,0.011Z" style="fill:#4d4d4d;fill-rule:nonzero;"/></g><g transform="matrix(8.41322,0,0,8.41322,1748.59,116.525)"><path d="M0.612,-0.737l0,0.048l-0.388,0l-0,0.263l0.26,0l-0,0.048l-0.26,0l-0,0.33l0.388,0l0,0.048l-0.512,-0l0,-0.737l0.512,0Z" style="fill:#4d4d4d;fill-rule:nonzero;"/></g><g transform="matrix(10.2828,0,0,10.2828,1756.09,116.525)"><path d="M0.1,-0.737l0.127,0l0.286,0.565l0.006,0l0.282,-0.565l0.124,0l0,0.737l-0.124,-0l-0,-0.604l-0.004,0l-0.303,0.604l-0.025,-0l-0.306,-0.599l-0.008,0l-0,0.599l-0.055,-0l-0,-0.737Z" style="fill:#4d4d4d;fill-rule:nonzero;"/></g><g transform="matrix(8.41322,0,0,8.41322,1766.63,116.525)"><path d="M0.473,0.017c-0.057,0 -0.11,-0.01 -0.159,-0.03c-0.05,-0.021 -0.093,-0.049 -0.129,-0.084c-0.037,-0.035 -0.065,-0.077 -0.086,-0.124c-0.021,-0.047 -0.032,-0.098 -0.032,-0.151c0,-0.035 0.005,-0.069 0.014,-0.102c0.01,-0.032 0.023,-0.063 0.041,-0.091c0.017,-0.028 0.038,-0.054 0.063,-0.077c0.024,-0.023 0.052,-0.043 0.082,-0.059c0.03,-0.017 0.062,-0.03 0.097,-0.039c0.035,-0.009 0.072,-0.013 0.109,-0.013c0.038,-0 0.075,0.004 0.11,0.013c0.035,0.009 0.067,0.022 0.097,0.039c0.03,0.016 0.058,0.036 0.082,0.059c0.025,0.023 0.046,0.049 0.063,0.077c0.018,0.028 0.031,0.059 0.041,0.091c0.009,0.033 0.014,0.067 0.014,0.102c0,0.036 -0.005,0.07 -0.014,0.103c-0.01,0.033 -0.023,0.064 -0.041,0.093c-0.017,0.029 -0.038,0.055 -0.063,0.079c-0.024,0.023 -0.052,0.044 -0.082,0.061c-0.03,0.017 -0.062,0.03 -0.097,0.039c-0.035,0.01 -0.072,0.014 -0.11,0.014Zm0,-0.036c0.043,-0 0.08,-0.009 0.112,-0.027c0.033,-0.017 0.06,-0.042 0.082,-0.073c0.022,-0.032 0.039,-0.069 0.05,-0.112c0.012,-0.043 0.017,-0.09 0.017,-0.141c0,-0.051 -0.005,-0.097 -0.017,-0.14c-0.011,-0.042 -0.028,-0.078 -0.05,-0.109c-0.022,-0.03 -0.049,-0.054 -0.082,-0.071c-0.032,-0.017 -0.069,-0.025 -0.112,-0.025c-0.043,-0 -0.08,0.008 -0.113,0.025c-0.032,0.017 -0.059,0.041 -0.081,0.071c-0.022,0.031 -0.039,0.067 -0.05,0.109c-0.011,0.043 -0.017,0.089 -0.017,0.14c0,0.051 0.006,0.098 0.017,0.141c0.011,0.043 0.028,0.08 0.05,0.112c0.022,0.031 0.049,0.056 0.081,0.073c0.033,0.018 0.07,0.027 0.113,0.027Z" style="fill:#4d4d4d;fill-rule:nonzero;"/></g><g transform="matrix(8.41322,0,0,8.41322,1774.59,116.525)"><path d="M0.089,-0.737l0.124,0l-0,0.479c-0,0.031 0.005,0.061 0.016,0.088c0.011,0.028 0.026,0.052 0.046,0.073c0.02,0.021 0.044,0.037 0.073,0.049c0.028,0.012 0.059,0.018 0.094,0.018c0.035,-0 0.067,-0.006 0.095,-0.018c0.028,-0.012 0.052,-0.028 0.072,-0.049c0.02,-0.021 0.035,-0.045 0.046,-0.073c0.01,-0.027 0.016,-0.057 0.016,-0.088l-0,-0.479l0.054,0l-0,0.479c-0,0.037 -0.006,0.073 -0.018,0.106c-0.013,0.034 -0.032,0.063 -0.058,0.088c-0.026,0.025 -0.059,0.045 -0.1,0.059c-0.041,0.015 -0.09,0.022 -0.147,0.022c-0.051,0 -0.095,-0.007 -0.135,-0.022c-0.039,-0.014 -0.071,-0.034 -0.098,-0.059c-0.026,-0.026 -0.046,-0.055 -0.06,-0.089c-0.013,-0.034 -0.02,-0.07 -0.02,-0.109l-0,-0.475Z" style="fill:#4d4d4d;fill-rule:nonzero;"/></g><g transform="matrix(8.41322,0,0,8.41322,1781.43,116.525)"><path d="M0.1,-0.737l0.069,0l0.483,0.539l0.006,0l-0,-0.539l0.054,0l0,0.754l-0.029,0l-0.522,-0.599l-0.005,0l0,0.582l-0.056,-0l-0,-0.737Z" style="fill:#4d4d4d;fill-rule:nonzero;"/></g><g transform="matrix(8.41322,0,0,8.41322,1788.27,116.525)"><path d="M0.679,-0.737l-0,0.048l-0.267,0l0,0.689l-0.124,-0l0,-0.689l-0.266,0l-0,-0.048l0.657,0Z" style="fill:#4d4d4d;fill-rule:nonzero;"/></g><g transform="matrix(8.41322,0,0,8.41322,1793.51,116.525)"><path d="M0.388,-0.753l0.347,0.753l-0.126,-0l-0.112,-0.246l-0.316,0l-0.117,0.246l-0.062,-0l0.355,-0.753l0.031,-0Zm-0.186,0.46l0.272,-0l-0.134,-0.292l-0.138,0.292Z" style="fill:#4d4d4d;fill-rule:nonzero;"/></g><g transform="matrix(8.41322,0,0,8.41322,1799.71,116.525)"><rect x="0.1" y="-0.737" width="0.124" height="0.737" style="fill:#4d4d4d;fill-rule:nonzero;"/></g><g transform="matrix(8.41322,0,0,8.41322,1802.44,116.525)"><path d="M0.1,-0.737l0.069,0l0.483,0.539l0.006,0l-0,-0.539l0.054,0l0,0.754l-0.029,0l-0.522,-0.599l-0.005,0l0,0.582l-0.056,-0l-0,-0.737Z" style="fill:#4d4d4d;fill-rule:nonzero;"/></g></g><path d="M34.005,223.087l50.662,0l-0,185.151l105.279,0l-0,21.147l-155.941,0l0,-206.298Z" style="fill:#4d4d4d;fill-rule:nonzero;"/><path d="M334.476,433.949c-16.633,0 -32.151,-2.687 -46.554,-8.063c-14.402,-5.375 -26.877,-12.906 -37.426,-22.592c-10.548,-9.686 -18.839,-21.198 -24.874,-34.535c-6.035,-13.338 -9.052,-27.968 -9.052,-43.892c-0,-15.619 3.017,-29.946 9.052,-42.979c6.035,-13.033 14.326,-24.215 24.874,-33.546c10.549,-9.331 23.024,-16.583 37.426,-21.756c14.403,-5.172 29.921,-7.759 46.554,-7.759c16.634,0 32.126,2.612 46.478,7.835c14.352,5.224 26.827,12.501 37.426,21.832c10.599,9.331 18.941,20.463 25.026,33.394c6.086,12.932 9.129,27.106 9.129,42.523c-0,10.953 -1.37,21.273 -4.108,30.96c-2.739,9.686 -6.643,18.586 -11.715,26.7c-5.071,8.114 -11.156,15.365 -18.256,21.755c-7.1,6.39 -15.036,11.816 -23.81,16.279c-8.773,4.463 -18.231,7.886 -28.373,10.269c-10.143,2.384 -20.742,3.575 -31.797,3.575Zm0,-17.343c10.041,-0 18.916,-2.308 26.624,-6.923c7.708,-4.614 14.149,-10.979 19.322,-19.093c5.172,-8.114 9.102,-17.774 11.79,-28.982c2.688,-11.207 4.032,-23.454 4.032,-36.741c-0,-13.084 -1.344,-25.052 -4.032,-35.904c-2.688,-10.853 -6.618,-20.184 -11.79,-27.994c-5.173,-7.809 -11.614,-13.895 -19.322,-18.256c-7.708,-4.361 -16.583,-6.542 -26.624,-6.542c-10.142,0 -19.068,2.181 -26.776,6.542c-7.708,4.361 -14.149,10.447 -19.321,18.256c-5.173,7.81 -9.078,17.141 -11.715,27.994c-2.637,10.852 -3.956,22.82 -3.956,35.904c0,13.287 1.319,25.534 3.956,36.741c2.637,11.208 6.542,20.868 11.715,28.982c5.172,8.114 11.613,14.479 19.321,19.093c7.708,4.615 16.634,6.923 26.776,6.923Z" style="fill:#4d4d4d;fill-rule:nonzero;"/><path d="M497.872,223.087l74.851,0c19.271,0 36.969,2.257 53.096,6.77c16.126,4.514 30.022,11.081 41.686,19.702c11.663,8.621 20.716,19.22 27.156,31.797c6.44,12.576 9.661,26.928 9.661,43.055c-0,14.503 -2.739,28.12 -8.216,40.848c-5.477,12.729 -13.464,23.861 -23.961,33.395c-10.498,9.533 -23.404,17.039 -38.719,22.516c-15.315,5.477 -32.862,8.215 -52.64,8.215l-82.914,0l-0,-206.298Zm50.661,185.151l26.929,0c9.939,0 19.296,-1.825 28.069,-5.477c8.773,-3.651 16.456,-9.027 23.049,-16.126c6.592,-7.1 11.79,-15.823 15.594,-26.168c3.803,-10.345 5.705,-22.212 5.705,-35.6c-0,-11.562 -1.8,-22.288 -5.401,-32.177c-3.601,-9.889 -8.596,-18.434 -14.986,-25.635c-6.389,-7.201 -14.022,-12.856 -22.896,-16.963c-8.875,-4.108 -18.586,-6.162 -29.134,-6.162l-26.929,0l0,164.308Z" style="fill:#4d4d4d;fill-rule:nonzero;"/><path d="M876.541,328.823l85.653,-0l0,79.415c-6.592,3.55 -13.185,6.796 -19.778,9.737c-6.592,2.941 -13.641,5.477 -21.147,7.607c-7.505,2.13 -15.695,3.803 -24.57,5.02c-8.874,1.217 -18.839,1.826 -29.895,1.826c-17.749,0 -34.104,-2.485 -49.064,-7.455c-14.96,-4.97 -27.892,-11.968 -38.795,-20.995c-10.903,-9.026 -19.397,-19.93 -25.483,-32.709c-6.085,-12.78 -9.128,-26.928 -9.128,-42.446c-0,-16.431 3.043,-31.442 9.128,-45.033c6.086,-13.591 14.554,-25.255 25.407,-34.992c10.852,-9.736 23.759,-17.293 38.719,-22.668c14.96,-5.376 31.315,-8.063 49.064,-8.063c10.447,-0 20.513,1.42 30.199,4.26c9.686,2.839 18.637,6.592 26.853,11.258c8.215,4.665 15.619,10.015 22.212,16.05c6.592,6.035 12.018,12.247 16.278,18.637l-20.843,19.017c-4.361,-6.187 -8.925,-11.917 -13.692,-17.191c-4.767,-5.274 -9.838,-9.864 -15.214,-13.769c-5.375,-3.905 -11.131,-6.973 -17.267,-9.204c-6.136,-2.231 -12.704,-3.347 -19.702,-3.347c-10.65,-0 -20.564,1.927 -29.743,5.781c-9.179,3.854 -17.141,9.407 -23.885,16.659c-6.745,7.252 -12.019,16.152 -15.823,26.7c-3.803,10.548 -5.705,22.516 -5.705,35.905c0,13.388 2.029,25.204 6.086,35.448c4.057,10.243 9.584,18.865 16.583,25.863c6.998,6.998 15.188,12.298 24.57,15.898c9.382,3.601 19.448,5.401 30.199,5.401c6.39,0 12.425,-0.837 18.104,-2.51c5.68,-1.674 10.904,-4.235 15.671,-7.683l-0,-54.77l-34.992,0l0,-17.647Z" style="fill:#4d4d4d;fill-rule:nonzero;"/><path d="M1166.67,223.087l-0,17.648l-103.454,0l0,68.005l85.958,0l-0,17.648l-85.958,0l0,81.85l103.454,0l-0,21.147l-154.115,0l-0,-206.298l154.115,0Z" style="fill:#4d4d4d;fill-rule:nonzero;"/></g></svg>