<?xml version="1.0" encoding="UTF-8" standalone="no"?><!DOCTYPE svg PUBLIC "-//W3C//DTD SVG 1.1//EN" "http://www.w3.org/Graphics/SVG/1.1/DTD/svg11.dtd"><svg width="100%" height="100%" viewBox="0 0 280 280" version="1.1" xmlns="http://www.w3.org/2000/svg" xmlns:xlink="http://www.w3.org/1999/xlink" xml:space="preserve" xmlns:serif="http://www.serif.com/" style="fill-rule:evenodd;clip-rule:evenodd;stroke-linejoin:round;stroke-miterlimit:2;"><rect id="the-lodge-circle" x="0" y="0" width="280" height="280" style="fill:none;"/><g id="the-lodge-circle1" serif:id="the-lodge-circle"><circle id="circle" cx="140" cy="140" r="140" style="fill:#98712a;"/><path id="lodge" d="M19.106,210.603c12.684,-0.189 23.04,-0.37 23.106,-0.455c42.283,-54.632 88.392,-112.655 129.975,-164.94l78.203,137.697c7.113,0.413 15.088,0.774 22.552,1.072c-1.237,3.736 -2.627,7.402 -4.161,10.987c-12.429,0.14 -23.094,0.262 -23.91,0.272l-72.834,-116.731c-6.551,6.881 -11.857,13.653 -17.166,21.611c4.606,3.999 34.579,46.458 42.809,62.112c-2.155,0.457 -5.615,0.098 -7.625,-0.964c-28.868,-39.758 -34.817,-40.585 -39.967,-40.502c-9.11,1.879 -16.164,6.932 -26.551,17.29c-26.274,26.2 -48.937,54.863 -73.462,82.1c-0.175,-0.011 -11.231,-0.132 -25.039,-0.279c-2.094,-3.007 -4.073,-6.1 -5.93,-9.27Z" style="fill:#fff;"/></g></svg>