<?xml version="1.0" encoding="UTF-8" standalone="no"?><!DOCTYPE svg PUBLIC "-//W3C//DTD SVG 1.1//EN" "http://www.w3.org/Graphics/SVG/1.1/DTD/svg11.dtd"><svg width="100%" height="100%" viewBox="0 0 280 280" version="1.1" xmlns="http://www.w3.org/2000/svg" xmlns:xlink="http://www.w3.org/1999/xlink" xml:space="preserve" xmlns:serif="http://www.serif.com/" style="fill-rule:evenodd;clip-rule:evenodd;stroke-linejoin:round;stroke-miterlimit:2;"><rect id="the-lodge" x="0" y="0" width="280" height="280" style="fill:none;"/><clipPath id="_clip1"><rect id="the-lodge1" serif:id="the-lodge" x="0" y="0" width="280" height="280"/></clipPath><g clip-path="url(#_clip1)"><path id="lodge" d="M111.452,146.404c12.386,-12.35 20.796,-18.374 31.658,-20.614c6.141,-0.099 13.235,0.886 47.654,48.292c2.397,1.265 6.523,1.694 9.092,1.149c-9.813,-18.665 -45.551,-69.29 -51.043,-74.059c6.33,-9.488 12.658,-17.562 20.468,-25.767l86.843,139.183c0.869,-0.011 23.876,-0.273 23.876,-0.273c-0.333,-3.489 -1.213,-7.601 -3.868,-13.733c-0,0 -9.144,-0.448 -13.428,-0.697l-93.244,-164.181c-49.581,62.341 -104.559,131.524 -154.974,196.663c-0.05,0.065 -12.496,0.304 -12.496,0.304c-1.857,3.703 -2.164,7.511 -1.915,11.357c-0,0 23.604,0.257 23.786,0.268c29.243,-32.476 56.264,-66.653 87.591,-97.892Z" style="fill:#98712a;"/></g></svg>