<?xml version="1.0" encoding="UTF-8" standalone="no"?><!DOCTYPE svg PUBLIC "-//W3C//DTD SVG 1.1//EN" "http://www.w3.org/Graphics/SVG/1.1/DTD/svg11.dtd"><svg width="100%" height="100%" viewBox="0 0 280 82" version="1.1" xmlns="http://www.w3.org/2000/svg" xmlns:xlink="http://www.w3.org/1999/xlink" xml:space="preserve" xmlns:serif="http://www.serif.com/" style="fill-rule:evenodd;clip-rule:evenodd;stroke-linejoin:round;stroke-miterlimit:2;"><rect id="the-lodge-mountains" x="0" y="0" width="280" height="81.132" style="fill:none;"/><clipPath id="_clip1"><rect x="0" y="0" width="280" height="81.132"/></clipPath><g clip-path="url(#_clip1)"><path id="mountains" d="M172.461,29.648l11.302,-8.728l33.553,23.199l22.677,-17.513l40.007,27.661l-4.956,0l-34.939,-23.585l-15.056,11.868l2.457,9.253l3.394,4.937l-47.024,-31.744l-3.704,3.125l2.475,9.316l4.914,6.11l-32.945,-22.24l-27.866,21.457l5.336,20.063l-2.142,-0.091l-10.455,-18.464l35.014,-27.041l17.958,12.417Z" style="fill:#8c8c8c;"/><path id="lodge" d="M126.588,69.303c0.336,-0.004 28.38,-0.321 29.763,-0.336c-1.196,-1.843 -2.885,-3.587 -4.199,-4.439c-1.358,-0.037 -21.355,-0.824 -23.015,-0.921l-36.012,-63.607l-0.066,0.083l-0.047,-0.083c-19.208,24.152 -40.508,50.955 -60.04,76.191c-0.002,0.003 -31.881,0.499 -31.881,0.499c-0.553,1.09 -0.92,2.33 -1.091,3.73l36.717,0.393c11.329,-12.582 21.798,-25.823 33.935,-37.925c4.798,-4.785 8.057,-7.119 12.265,-7.987l0.165,-0.001c2.329,0.019 5.365,1.055 18.184,18.711c0.677,0.357 1.712,0.542 2.608,0.534c0.374,0.004 0.728,-0.026 1.027,-0.089c-3.801,-7.232 -17.647,-26.845 -19.775,-28.692c2.434,-3.649 4.867,-6.757 7.862,-9.911l33.6,53.85Z" style="fill:#98712a;"/></g></svg>