<?xml version="1.0" encoding="UTF-8" standalone="no"?><!DOCTYPE svg PUBLIC "-//W3C//DTD SVG 1.1//EN" "http://www.w3.org/Graphics/SVG/1.1/DTD/svg11.dtd"><svg width="100%" height="100%" viewBox="0 0 280 280" version="1.1" xmlns="http://www.w3.org/2000/svg" xmlns:xlink="http://www.w3.org/1999/xlink" xml:space="preserve" xmlns:serif="http://www.serif.com/" style="fill-rule:evenodd;clip-rule:evenodd;stroke-linejoin:round;stroke-miterlimit:2;"><rect id="wedding" x="0" y="0" width="280" height="280" style="fill:none;"/><clipPath id="_clip1"><rect x="0" y="0" width="280" height="280"/></clipPath><g clip-path="url(#_clip1)"><path d="M215.056,68.715l33.515,-33.515l-16.621,-0l-0,-17.248l48.05,0l0,48.05l-17.248,0l0,-16.621l-33.627,33.627c10.085,13.245 16.074,29.771 16.074,47.683c0,43.499 -35.315,78.814 -78.814,78.814c-43.499,0 -78.814,-35.315 -78.814,-78.814c0,-43.498 35.315,-78.814 78.814,-78.814c18.361,0 35.264,6.292 48.671,16.838Zm-9.297,23.222l4.271,5.611c7.01,9.206 11.169,20.693 11.169,33.143c0,30.253 -24.561,54.814 -54.814,54.814c-30.253,0 -54.814,-24.561 -54.814,-54.814c0,-30.252 24.561,-54.814 54.814,-54.814c12.763,0 24.513,4.371 33.833,11.702l5.541,4.358Z"/><path d="M70.057,209.023c-39.381,-4.358 -70.057,-37.791 -70.057,-78.332c0,-43.498 35.315,-78.814 78.814,-78.814c43.499,0 78.814,35.316 78.814,78.814c0,40.541 -30.676,73.974 -70.057,78.332l0,19.748l19.266,-0l-0,17.514l-19.266,0l0,15.763l-17.514,-0l-0,-15.763l-19.266,0l0,-17.514l19.266,-0l-0,-19.748Zm8.757,-23.177l-6.117,-0.677c-27.382,-3.031 -48.697,-26.289 -48.697,-54.478c-0,-30.252 24.561,-54.814 54.814,-54.814c30.253,0 54.814,24.562 54.814,54.814c0,28.189 -21.315,51.447 -48.697,54.478l-6.117,0.677Z"/></g></svg>